<?xml version="1.0" encoding="UTF-8" standalone="no"?>
<!-- Created with Inkscape (http://www.inkscape.org/) -->

<svg
   viewBox="0 0 210 297"
   version="1.1"
   id="svg5"
   xml:space="preserve"
   xmlns:xlink="http://www.w3.org/1999/xlink"
   xmlns="http://www.w3.org/2000/svg"
   xmlns:svg="http://www.w3.org/2000/svg"><defs
     id="defs2"><linearGradient
       id="linearGradient58302"><stop
         style="stop-color:#5189e2;stop-opacity:0.58431375;"
         offset="0"
         id="stop58300" /><stop
         style="stop-color:#0d4194;stop-opacity:0.93333334;"
         offset="1"
         id="stop58298" /></linearGradient><linearGradient
       id="linearGradient41594"><stop
         style="stop-color:#99f01c;stop-opacity:1;"
         offset="0.17369249"
         id="stop41590" /><stop
         style="stop-color:#c1fa6f;stop-opacity:0.99607843;"
         offset="0.87698931"
         id="stop41592" /></linearGradient><linearGradient
       id="linearGradient29113"><stop
         style="stop-color:#64a8e7;stop-opacity:0.58638877;"
         offset="0"
         id="stop29111" /><stop
         style="stop-color:#0858a3;stop-opacity:1;"
         offset="1"
         id="stop29109" /></linearGradient><linearGradient
       id="linearGradient28379"><stop
         style="stop-color:#3f81ec;stop-opacity:0.54952615;"
         offset="0"
         id="stop28377" /><stop
         style="stop-color:#0649b5;stop-opacity:1;"
         offset="0.95164812"
         id="stop28375" /></linearGradient><linearGradient
       id="linearGradient13819"><stop
         style="stop-color:#1e6f12;stop-opacity:1;"
         offset="0.2316208"
         id="stop13815" /><stop
         style="stop-color:#1ec105;stop-opacity:0.52443874;"
         offset="1"
         id="stop13817" /></linearGradient><linearGradient
       id="linearGradient1641"><stop
         style="stop-color:#12910f;stop-opacity:1;"
         offset="0.1927226"
         id="stop1637" /><stop
         style="stop-color:#60b50d;stop-opacity:0.75267935;"
         offset="1"
         id="stop1639" /></linearGradient><linearGradient
       xlink:href="#linearGradient28379"
       id="linearGradient32401"
       gradientUnits="userSpaceOnUse"
       x1="71.363503"
       y1="84.434418"
       x2="80.699112"
       y2="84.434418" /><linearGradient
       xlink:href="#linearGradient29113"
       id="linearGradient32403"
       gradientUnits="userSpaceOnUse"
       x1="81.17482"
       y1="110.52262"
       x2="87.188637"
       y2="110.52262" /><linearGradient
       xlink:href="#linearGradient1641"
       id="linearGradient32405"
       gradientUnits="userSpaceOnUse"
       x1="47.656853"
       y1="112.37495"
       x2="61.944862"
       y2="112.37495" /><linearGradient
       xlink:href="#linearGradient13819"
       id="linearGradient32409"
       gradientUnits="userSpaceOnUse"
       x1="66.228439"
       y1="103.20015"
       x2="100.49249"
       y2="103.20015"
       spreadMethod="pad" /><linearGradient
       xlink:href="#linearGradient41594"
       id="linearGradient41596"
       x1="53.896889"
       y1="97.657089"
       x2="100.49483"
       y2="97.657089"
       gradientUnits="userSpaceOnUse" /><linearGradient
       xlink:href="#linearGradient58302"
       id="linearGradient58304"
       x1="62.400867"
       y1="84.307602"
       x2="71.468536"
       y2="84.307602"
       gradientUnits="userSpaceOnUse" /></defs><g
     id="layer2"><g
       id="g61980"><g
         id="g33228"
         transform="translate(-13.623974,0.37723803)"><path
           id="rect33184"
           style="stroke-width:0.264583"
           d="m 48.43942,75.45689 v 53.43602 h 54.36102 V 75.45689 Z m 24.208858,0.92501 0.0016,0.0031 9.333797,15.67346 -4.788338,-0.5674 4.789888,0.56844 -6.805786,2.74918 -2.440161,-3.82095 -3.740857,6.29315 -10.787972,4.13309 0.0062,-0.004 5.17e-4,-5.2e-4 5.461682,-9.61336 0.01034,-0.001 8.959143,-15.40732 z m 0,0.0057 0.0925,14.5712 0.0124,-10e-4 -0.103353,-14.57276 z m 0.0925,14.5712 -0.01809,0.0015 0.0026,5.2e-4 0.0155,-0.0015 z m 0,5.2e-4 v 0.0031 l 0.01034,0.0015 0.0041,-0.0031 -0.0021,0.0031 0.0021,5.1e-4 0.0098,-0.0072 z m 0.01447,0.0052 -10e-4,5.2e-4 4.441073,0.52607 z m -10e-4,5.2e-4 h -0.0016 l -10e-4,0.0021 z m -0.0026,0.0021 -0.01757,0.0124 0.0052,0.0083 z m -0.01757,0.0124 -0.0015,-0.0021 -14.515393,10.43192 z m -0.0015,-0.0021 0.01757,-0.01292 -0.0093,-10e-4 v -0.001 l -0.0155,-0.0016 h -0.0031 z m -0.01034,-0.01653 -5.17e-4,-5.2e-4 -0.794784,0.07441 z m -0.795301,0.07389 -8.23774,0.76016 -0.0036,0.0062 z m 0.823206,-0.07028 0.0026,5.2e-4 5.17e-4,-0.001 h -0.0021 z m 29.027167,-2.74505 -0.002,0.001 v -5.2e-4 z m -0.002,0.001 -34.132279,29.4199 -0.05426,0.0977 -0.02015,-0.0341 -0.0021,0.002 v 5.1e-4 l 0.01189,0.0207 h -0.03566 l -0.02946,0.0253 0.01395,-0.0253 -18.566825,-0.0873 -0.0186,0.01 0.0057,-0.01 h -0.0021 l 0.0026,-0.002 6.159831,-10.96625 1.233,0.5333 -1.223181,-0.5364 0.111621,-0.0202 z m 0,0 -26.040266,14.68799 -0.0021,0.005 0.03049,-0.006 z m -26.011844,14.68644 -0.03979,0.0227 0.0093,-0.0165 -20.503658,3.73517 -0.04754,0.0186 20.462317,-3.69176 0.07855,-0.045 -0.04393,0.0796 0.09095,-0.0522 -0.0098,0.0181 0.172083,-0.0992 z m -0.0036,0.0687 -0.09095,0.0522 -8.115267,14.65027 0.01499,0.0253 0.07441,-0.0636 z m -8.206217,14.70246 -0.291972,-0.4961 0.290422,0.4992 z m -0.0016,0.003 -0.02481,0.045 h 0.0155 l 0.02377,-0.0207 z m -0.290422,-0.4992 -4.059184,-6.9758 -0.0057,0.003 -0.0098,-0.004 -0.02429,0.0129 z m -4.098974,-6.96391 -5.17e-4,-0.001 0.01964,-0.0114 -14.233757,7.43158 -5.16e-4,0.002 h 0.01292 z m 0.02429,-0.0129 0.01137,-0.006 0.0041,0.007 12.466423,-7.17837 0.0098,-0.0181 -12.452986,7.17063 0.0041,0.002 -0.03152,0.0165 -0.001,-0.002 -0.0124,0.007 z m -0.0021,-0.001 0.04082,-0.0238 -6.884851,-2.97605 z m 24.955583,-7.51014 8.530746,14.91589 -8.19795,0.31264 -5.16e-4,-0.0139 -6.01307,-10.30067 5.681307,-4.89634 z m 5.17e-4,0.0176 0.331763,15.19701 5.16e-4,5.1e-4 -0.326595,-15.20269 z" /><g
           id="g30844"
           transform="translate(1.2511784,-0.22685904)"
           style="display:inline"><path
             style="opacity:1;fill:#7aa7f0;fill-opacity:1;stroke-width:0.249877"
             d="m 56.931676,101.62412 5.462403,-9.613904 9.086055,-0.83856 z"
             id="path804" /><path
             style="opacity:1;fill:#4b87e8;fill-opacity:1;stroke-width:0.249972"
             d="m 71.470488,91.175411 -3.757065,6.320027 -10.787919,4.132872 z"
             id="path961" /><path
             style="opacity:1;fill:url(#linearGradient58304);fill-opacity:1;stroke-width:0.336626"
             d="m 71.365265,76.599602 0.103272,14.572674 -9.067671,0.84333 z"
             id="path11568" /><path
             style="opacity:1;fill:url(#linearGradient32401);fill-opacity:1;stroke-width:0.341191"
             d="m 71.363501,76.596148 0.09229,14.581633 9.243321,1.09491 z"
             id="path11934" /><path
             style="opacity:1;fill:#074ab5;fill-opacity:1;stroke-width:0.0926784"
             d="m 71.437111,91.174725 2.457737,3.848337 6.80549,-2.749293 z"
             id="path11936" /><path
             style="opacity:1;fill:url(#linearGradient32403);fill-opacity:1;stroke-width:0.105265"
             d="m 86.861901,102.92133 -5.687081,4.90156 6.013817,10.30101 z"
             id="path11938" /><path
             style="opacity:1;fill:#55b2ff;fill-opacity:1;stroke-width:0.119391"
             d="m 86.855717,102.90892 8.530424,14.91576 -8.197554,0.31271 z"
             id="path11940" /><path
             style="opacity:1;fill:#045a00;fill-opacity:1;stroke-width:0.105265"
             d="m 61.912416,110.41223 -14.252064,7.4418 18.633194,0.087 z"
             id="path11942" /><path
             style="opacity:1;fill:url(#linearGradient32405);fill-opacity:1;stroke-width:0.0860155"
             d="m 53.822837,106.88617 8.122026,3.51112 -14.288009,7.46645 z"
             id="path11944" /><path
             style="opacity:1;fill:#78cf23;fill-opacity:1;stroke-width:0.0559348"
             d="m 61.912094,110.42439 12.734873,-7.33317 -20.814287,3.79185 z"
             id="path11946" /><path
             style="opacity:1;fill:#297f25;fill-opacity:1;stroke-width:0.0559348"
             d="m 66.303675,117.9524 8.181054,-14.77975 -12.607651,7.25915 z"
             id="path12676" /><path
             style="opacity:1;fill:url(#linearGradient41596);fill-opacity:1;stroke-width:0.0915494"
             d="M 74.359029,103.1898 53.89689,106.88138 100.49483,88.432797 Z"
             id="path12678" /><path
             style="opacity:1;fill:url(#linearGradient32409);fill-opacity:1;stroke-width:0.0718369"
             d="M 74.449901,103.12334 100.49249,88.433666 66.228443,117.96664 Z"
             id="path12680" /></g></g><g
         aria-label="AGUS DEV."
         transform="matrix(0.56850124,0,0,0.5927294,20.991215,46.55567)"
         id="text30848"
         style="font-weight:bold;font-size:8.17038px;font-family:'Noto Sans Symbols';-inkscape-font-specification:'Noto Sans Symbols, Bold';fill:#ffffff;fill-opacity:1;stroke-width:0.206268"><path
           d="m 51.011448,130.25189 2.050765,-5.85816 h 1.536032 l 2.067106,5.85816 h -1.348113 l -0.449371,-1.37262 h -2.058936 l -0.44937,1.37262 z m 2.091617,-2.41843 h 1.478839 l -0.408519,-1.26641 q -0.03268,-0.12255 -0.106215,-0.36767 -0.06536,-0.24511 -0.130726,-0.49839 -0.06536,-0.26145 -0.106215,-0.42486 -0.03268,0.18792 -0.09805,0.43303 -0.05719,0.23694 -0.114385,0.47388 -0.05719,0.22877 -0.09804,0.38401 z"
           id="path31682"
           style="fill:#ffffff;fill-opacity:1" /><path
           d="m 59.925328,130.3336 q -1.299091,0 -2.058936,-0.76802 -0.751675,-0.76802 -0.751675,-2.23868 0,-0.91509 0.351326,-1.58506 0.351327,-0.66997 1.029468,-1.03764 0.686312,-0.36766 1.666758,-0.36766 0.522904,0 0.988616,0.098 0.473882,0.0981 0.841549,0.26145 l -0.41669,0.99679 q -0.310474,-0.14707 -0.669971,-0.22877 -0.359497,-0.0899 -0.751675,-0.0899 -0.596437,0 -0.988616,0.26145 -0.384008,0.25328 -0.571926,0.70265 -0.187919,0.4412 -0.187919,1.01313 0,0.90691 0.408519,1.42981 0.408519,0.51474 1.258238,0.51474 0.236941,0 0.457542,-0.0245 0.22877,-0.0327 0.375837,-0.0735 v -1.23372 h -1.127512 v -0.99679 h 2.320388 v 3.03121 q -0.457542,0.15524 -1.004957,0.24511 -0.539245,0.0899 -1.168364,0.0899 z"
           id="path31684"
           style="fill:#ffffff;fill-opacity:1" /><path
           d="m 65.701791,130.3336 q -1.168365,0 -1.772973,-0.60461 -0.604608,-0.61278 -0.604608,-1.6831 v -3.62765 h 1.250068 v 3.56229 q 0,1.29909 1.152024,1.29909 0.604608,0 0.874231,-0.33499 0.269622,-0.33498 0.269622,-0.97227 v -3.55412 h 1.250068 v 3.61131 q 0,0.68631 -0.269622,1.20922 -0.261453,0.51473 -0.800698,0.80886 -0.539245,0.28597 -1.348112,0.28597 z"
           id="path31686"
           style="fill:#ffffff;fill-opacity:1" /><path
           d="m 70.873639,130.3336 q -0.555586,0 -0.955934,-0.0817 -0.400349,-0.0817 -0.759846,-0.25328 v -1.12751 q 0.400349,0.19609 0.86606,0.31864 0.465712,0.11439 0.882401,0.11439 0.465712,0 0.694483,-0.17158 0.236941,-0.17158 0.236941,-0.45754 0,-0.20426 -0.114386,-0.34316 -0.114385,-0.14706 -0.375837,-0.27779 -0.253282,-0.1389 -0.686312,-0.31864 -0.465712,-0.19609 -0.792527,-0.41669 -0.318645,-0.22877 -0.490223,-0.54742 -0.171577,-0.32681 -0.171577,-0.81704 0,-0.5229 0.261452,-0.8824 0.261452,-0.3595 0.727163,-0.54741 0.465712,-0.18792 1.078491,-0.18792 0.539245,0 0.972275,0.11438 0.43303,0.11439 0.784356,0.26963 l -0.384008,0.98861 q -0.343156,-0.15524 -0.710823,-0.25328 -0.359496,-0.098 -0.694482,-0.098 -0.400349,0 -0.596438,0.15524 -0.196089,0.15524 -0.196089,0.40035 0,0.20426 0.114386,0.34316 0.114385,0.13889 0.375837,0.27779 0.261452,0.1389 0.710823,0.32681 0.457541,0.19609 0.776186,0.41669 0.318645,0.21243 0.490223,0.52291 0.171578,0.3023 0.171578,0.75984 0,0.4984 -0.253282,0.89875 -0.245111,0.40034 -0.735334,0.63728 -0.490223,0.23695 -1.225557,0.23695 z"
           id="path31688"
           style="fill:#ffffff;fill-opacity:1" /><path
           d="m 76.217069,130.25189 v -5.83365 h 1.92821 q 1.372623,0 2.140639,0.72716 0.776186,0.719 0.776186,2.09162 0,1.00496 -0.375837,1.67493 -0.375838,0.66997 -1.06215,1.00496 -0.686311,0.33498 -1.625905,0.33498 z m 1.250068,-1.02947 h 0.522904 q 1.764802,0 1.764802,-1.93638 0,-0.93959 -0.416689,-1.38896 -0.416689,-0.45754 -1.225557,-0.45754 h -0.64546 z"
           id="path31690"
           style="fill:#ffffff;fill-opacity:1" /><path
           d="m 82.19779,130.25189 v -5.83365 h 3.382537 v 1.0213 h -2.132469 v 1.27458 h 1.993572 v 1.0213 h -1.993572 v 1.47883 h 2.132469 v 1.03764 z"
           id="path31692"
           style="fill:#ffffff;fill-opacity:1" /><path
           d="m 87.990591,130.25189 -1.977232,-5.83365 h 1.380794 l 0.996787,3.25998 q 0.05719,0.19609 0.122555,0.4412 0.06536,0.24511 0.114386,0.48206 0.04902,0.23694 0.07353,0.41668 0.03268,-0.26145 0.122556,-0.64546 0.08987,-0.39217 0.179748,-0.68631 l 1.004957,-3.26815 h 1.372623 l -1.977231,5.83365 z"
           id="path31694"
           style="fill:#ffffff;fill-opacity:1" /><path
           d="m 91.847006,129.67997 q 0,-0.37584 0.204259,-0.52291 0.20426,-0.15524 0.498394,-0.15524 0.285963,0 0.490222,0.15524 0.20426,0.14707 0.20426,0.52291 0,0.35949 -0.20426,0.5229 -0.204259,0.15524 -0.490222,0.15524 -0.294134,0 -0.498394,-0.15524 -0.204259,-0.16341 -0.204259,-0.5229 z"
           id="path31696"
           style="fill:#ffffff;fill-opacity:1" /></g><g
         aria-label="SI, SE PUEDE !!"
         transform="matrix(0.66606539,0,0,0.68670951,14.883287,33.664101)"
         id="text30852"
         style="font-weight:bold;font-size:2.94451px;font-family:'Noto Sans Symbols';-inkscape-font-specification:'Noto Sans Symbols, Bold';fill:#ffffff;fill-opacity:1;stroke-width:0.0732027"><path
           d="m 61.308894,135.95192 q -0.200227,0 -0.344508,-0.0294 -0.144281,-0.0294 -0.273839,-0.0913 v -0.40634 q 0.14428,0.0707 0.312118,0.11483 0.167837,0.0412 0.318007,0.0412 0.167837,0 0.250283,-0.0618 0.08539,-0.0618 0.08539,-0.16489 0,-0.0736 -0.04122,-0.12367 -0.04122,-0.053 -0.135448,-0.10011 -0.09128,-0.0501 -0.247339,-0.11484 -0.167837,-0.0707 -0.285617,-0.15017 -0.114836,-0.0824 -0.176671,-0.19728 -0.06183,-0.11778 -0.06183,-0.29445 0,-0.18845 0.09422,-0.31801 0.09422,-0.12956 0.262061,-0.19728 0.167837,-0.0677 0.388676,-0.0677 0.194337,0 0.350396,0.0412 0.156059,0.0412 0.282673,0.0972 l -0.138392,0.35628 q -0.123669,-0.0559 -0.256172,-0.0913 -0.129559,-0.0353 -0.250283,-0.0353 -0.144281,0 -0.21495,0.0559 -0.07067,0.0559 -0.07067,0.14429 0,0.0736 0.04122,0.12366 0.04122,0.0501 0.135448,0.10012 0.09422,0.05 0.256172,0.11778 0.164893,0.0707 0.279729,0.15017 0.114835,0.0766 0.17667,0.18845 0.06184,0.10894 0.06184,0.27384 0,0.17961 -0.09128,0.32389 -0.08834,0.14428 -0.265006,0.22967 -0.17667,0.0854 -0.441676,0.0854 z"
           id="path31699"
           style="fill:#ffffff;fill-opacity:1" /><path
           d="m 62.324749,135.92247 v -0.25617 l 0.256173,-0.0854 v -1.4222 l -0.256173,-0.0825 v -0.25617 h 0.9658 v 0.25617 l -0.256173,0.0825 v 1.4222 l 0.256173,0.0854 v 0.25617 z"
           id="path31701"
           style="fill:#ffffff;fill-opacity:1" /><path
           d="m 64.059063,135.6133 q -0.03828,0.15606 -0.108947,0.34156 -0.07067,0.1855 -0.144281,0.34745 h -0.315062 q 0.04122,-0.17372 0.08245,-0.37101 0.04122,-0.19728 0.06183,-0.35039 h 0.403397 z"
           id="path31703"
           style="fill:#ffffff;fill-opacity:1" /><path
           d="m 65.76099,135.95192 q -0.200227,0 -0.344508,-0.0294 -0.144281,-0.0294 -0.273839,-0.0913 v -0.40634 q 0.144281,0.0707 0.312118,0.11483 0.167837,0.0412 0.318007,0.0412 0.167837,0 0.250283,-0.0618 0.08539,-0.0618 0.08539,-0.16489 0,-0.0736 -0.04122,-0.12367 -0.04122,-0.053 -0.135447,-0.10011 -0.09128,-0.0501 -0.247339,-0.11484 -0.167837,-0.0707 -0.285618,-0.15017 -0.114836,-0.0824 -0.17667,-0.19728 -0.06184,-0.11778 -0.06184,-0.29445 0,-0.18845 0.09422,-0.31801 0.09422,-0.12956 0.262062,-0.19728 0.167837,-0.0677 0.388675,-0.0677 0.194338,0 0.350397,0.0412 0.156059,0.0412 0.282673,0.0972 l -0.138392,0.35628 q -0.12367,-0.0559 -0.256173,-0.0913 -0.129558,-0.0353 -0.250283,-0.0353 -0.144281,0 -0.214949,0.0559 -0.07067,0.0559 -0.07067,0.14429 0,0.0736 0.04122,0.12366 0.04122,0.0501 0.135447,0.10012 0.09422,0.05 0.256173,0.11778 0.164892,0.0707 0.279728,0.15017 0.114836,0.0766 0.176671,0.18845 0.06183,0.10894 0.06183,0.27384 0,0.17961 -0.09128,0.32389 -0.08833,0.14428 -0.265005,0.22967 -0.176671,0.0854 -0.441677,0.0854 z"
           id="path31705"
           style="fill:#ffffff;fill-opacity:1" /><path
           d="m 66.921127,135.92247 v -2.10238 h 1.219027 v 0.36806 h -0.768517 v 0.45935 h 0.71846 v 0.36806 h -0.71846 v 0.53296 h 0.768517 v 0.37395 z"
           id="path31707"
           style="fill:#ffffff;fill-opacity:1" /><path
           d="m 69.31207,135.92247 v -2.10238 h 0.65957 q 0.406343,0 0.60068,0.17078 0.194338,0.16784 0.194338,0.47701 0,0.18551 -0.07656,0.34745 -0.07656,0.16195 -0.256173,0.26207 -0.17667,0.10011 -0.479955,0.10011 h -0.19139 v 0.74496 z m 0.45051,-1.11597 h 0.15017 q 0.185504,0 0.291507,-0.0736 0.108946,-0.0736 0.108946,-0.25029 0,-0.14133 -0.08834,-0.21789 -0.08539,-0.0766 -0.26795,-0.0766 H 69.76258 Z"
           id="path31709"
           style="fill:#ffffff;fill-opacity:1" /><path
           d="m 71.982742,135.95192 q -0.421065,0 -0.638959,-0.2179 -0.217894,-0.22084 -0.217894,-0.60657 v -1.30736 h 0.45051 v 1.28381 q 0,0.46817 0.415176,0.46817 0.217894,0 0.315063,-0.12072 0.09717,-0.12073 0.09717,-0.3504 v -1.28086 h 0.45051 v 1.30147 q 0,0.24734 -0.09717,0.43579 -0.09422,0.1855 -0.288562,0.29151 -0.194338,0.10306 -0.485844,0.10306 z"
           id="path31711"
           style="fill:#ffffff;fill-opacity:1" /><path
           d="m 73.34016,135.92247 v -2.10238 h 1.219027 v 0.36806 H 73.79067 v 0.45935 h 0.71846 v 0.36806 h -0.71846 v 0.53296 h 0.768517 v 0.37395 z"
           id="path31713"
           style="fill:#ffffff;fill-opacity:1" /><path
           d="m 74.96553,135.92247 v -2.10238 h 0.694904 q 0.494678,0 0.771462,0.26206 0.279728,0.25912 0.279728,0.7538 0,0.36217 -0.135447,0.60362 -0.135448,0.24145 -0.382787,0.36218 -0.247339,0.12072 -0.585957,0.12072 z m 0.45051,-0.37101 h 0.188448 q 0.636014,0 0.636014,-0.69785 0,-0.33862 -0.15017,-0.50056 -0.15017,-0.1649 -0.441676,-0.1649 H 75.41604 Z"
           id="path31715"
           style="fill:#ffffff;fill-opacity:1" /><path
           d="m 77.120912,135.92247 v -2.10238 h 1.219027 v 0.36806 h -0.768517 v 0.45935 h 0.71846 v 0.36806 h -0.71846 v 0.53296 h 0.768517 v 0.37395 z"
           id="path31717"
           style="fill:#ffffff;fill-opacity:1" /><path
           d="m 79.859307,135.22462 h -0.350396 l -0.07361,-1.40453 h 0.497622 z m -0.429898,0.49173 q 0,-0.13544 0.07361,-0.18844 0.07361,-0.0559 0.179615,-0.0559 0.103058,0 0.17667,0.0559 0.07361,0.053 0.07361,0.18844 0,0.12956 -0.07361,0.18845 -0.07361,0.0559 -0.17667,0.0559 -0.106003,0 -0.179615,-0.0559 -0.07361,-0.0589 -0.07361,-0.18845 z"
           id="path31719"
           style="fill:#ffffff;fill-opacity:1" /><path
           d="m 80.701434,135.22462 h -0.350396 l -0.07361,-1.40453 h 0.497622 z m -0.429898,0.49173 q 0,-0.13544 0.07361,-0.18844 0.07361,-0.0559 0.179615,-0.0559 0.103058,0 0.17667,0.0559 0.07361,0.053 0.07361,0.18844 0,0.12956 -0.07361,0.18845 -0.07361,0.0559 -0.17667,0.0559 -0.106003,0 -0.179615,-0.0559 -0.07361,-0.0589 -0.07361,-0.18845 z"
           id="path31721"
           style="fill:#ffffff;fill-opacity:1" /></g></g></g></svg>
